<svg width="300" height="65" viewBox="0 0 300 65" fill="none" xmlns="http://www.w3.org/2000/svg">
<path d="M65.6744 31.8937C65.7037 35.3312 65.0885 38.7438 63.8605 41.9546C75.7147 39.5933 82.9649 35.9512 82.9595 31.874V31.8695C82.9516 27.7933 75.694 24.1719 63.8369 21.8406C65.0719 25.0473 65.6952 28.457 65.6744 31.8932V31.8937Z" fill="url(#paint0_linear_606_1954)"/>
<path d="M9.64447 32.1325L9.63758 26.9446C1.51617 28.2534 -0.00305601 30.1038 -9.93652e-05 32.1493C0.00285728 34.1948 1.5275 36.0323 9.65088 37.3234L9.64447 32.1325Z" fill="url(#paint1_linear_606_1954)"/>
<path d="M32.7415 44.7466C38.809 44.5342 45.1855 44.1144 51.837 43.426C55.246 43.0732 58.5641 42.6699 61.7911 42.2162C64.3559 35.5767 64.3473 28.2183 61.767 21.5848C58.509 21.1422 55.1598 20.748 51.7193 20.4021C45.0175 19.7319 38.5907 19.3279 32.4725 19.1288C28.2346 13.3978 20.1965 9.44083 9.6516 9.45414L9.66392 18.978C9.66392 20.7204 10.1074 21.7577 11.8849 21.7577L11.9184 21.7518L11.9312 31.9631L11.9445 42.5084C10.0626 42.5084 9.69447 43.5048 9.69693 45.2547L9.70876 54.8145C20.4552 54.7997 28.6313 50.6663 32.7415 44.7466ZM58.6906 31.902C58.6916 32.6852 58.4604 33.4512 58.0262 34.1029C57.5919 34.7548 56.9741 35.2632 56.2509 35.5639C55.5277 35.8646 54.7316 35.9441 53.9632 35.7923C53.1949 35.6405 52.4887 35.2643 51.9342 34.7111C51.3796 34.158 51.0016 33.4529 50.8478 32.6849C50.694 31.917 50.7714 31.1206 51.0702 30.3966C51.369 29.6727 51.8758 29.0536 52.5265 28.6176C53.1771 28.1817 53.9424 27.9484 54.7257 27.9475C55.7758 27.9463 56.7834 28.3622 57.5269 29.1038C58.2704 29.8454 58.689 30.8519 58.6906 31.902ZM45.7902 31.9187C45.7912 32.7018 45.5601 33.4677 45.1254 34.1193C44.6913 34.771 44.0738 35.2793 43.3505 35.5798C42.6276 35.8804 41.8312 35.9598 41.063 35.808C40.2948 35.6562 39.5891 35.2799 39.0347 34.7269C38.4799 34.1739 38.1019 33.4688 37.9482 32.701C37.7944 31.9331 37.8723 31.1368 38.1709 30.413C38.4695 29.6891 38.9761 29.0701 39.6271 28.6342C40.2775 28.1984 41.0428 27.9652 41.8258 27.9642C42.8759 27.963 43.8836 28.379 44.6267 29.1206C45.3703 29.8622 45.7888 30.8687 45.7902 31.9187ZM24.9705 31.9453C24.9695 31.1622 25.2006 30.3964 25.6352 29.7448C26.0694 29.0931 26.6868 28.5848 27.4102 28.2843C28.1331 27.9837 28.9294 27.9043 29.6977 28.0561C30.4659 28.2079 31.1715 28.5842 31.7264 29.1372C32.2808 29.6903 32.6587 30.3953 32.8125 31.1632C32.9662 31.931 32.8889 32.7272 32.5897 33.4511C32.2911 34.1749 31.7846 34.794 31.1336 35.2298C30.4831 35.6657 29.7179 35.8989 28.9348 35.8998C28.415 35.9005 27.9 35.7987 27.4191 35.6003C26.9386 35.4019 26.5015 35.1108 26.1334 34.7435C25.7653 34.3762 25.4731 33.9401 25.2735 33.4599C25.074 32.9797 24.9705 32.4649 24.97 31.9448L24.9705 31.9453Z" fill="url(#paint2_linear_606_1954)"/>
<path d="M57.0391 31.9064C57.0295 31.3 56.7816 30.7217 56.3492 30.2966C55.9167 29.8714 55.3343 29.6335 54.7278 29.6343C54.1213 29.6351 53.5395 29.8745 53.1081 30.3007C52.6767 30.727 52.4303 31.3059 52.4223 31.9123C52.423 32.5245 52.667 33.1113 53.1005 33.5437C53.534 33.9761 54.1214 34.2185 54.7336 34.2177C55.3458 34.2169 55.9327 33.973 56.365 33.5395C56.7974 33.1061 57.0398 32.5186 57.0391 31.9064Z" fill="url(#paint3_linear_606_1954)"/>
<path d="M44.1387 31.923V31.9186C44.1293 31.3122 43.8814 30.7339 43.4488 30.3087C43.0161 29.8836 42.4337 29.6457 41.8276 29.6465C41.2209 29.6473 40.639 29.8866 40.2078 30.3129C39.7761 30.7392 39.5297 31.3181 39.5219 31.9245C39.5224 32.5368 39.7663 33.1237 40.1999 33.5562C40.6331 33.9887 41.221 34.2313 41.833 34.2307C42.4455 34.23 43.0324 33.9862 43.4645 33.5527C43.8972 33.1193 44.1397 32.5318 44.1392 31.9196L44.1387 31.923Z" fill="url(#paint4_linear_606_1954)"/>
<path d="M31.2378 31.9393V31.9369C31.2284 31.3305 30.9806 30.7522 30.5479 30.3271C30.1152 29.9019 29.5328 29.664 28.9267 29.6648C28.3201 29.6655 27.7381 29.905 27.3069 30.3312C26.8753 30.7575 26.6289 31.3364 26.621 31.9428C26.622 32.555 26.8654 33.1419 27.2991 33.5743C27.7327 34.0067 28.3201 34.2492 28.9321 34.2485C29.5441 34.2477 30.131 34.0039 30.5637 33.5704C30.9958 33.137 31.2383 32.5496 31.2378 31.9374V31.9393Z" fill="url(#paint5_linear_606_1954)"/>
<path d="M64.1337 44.4032C73.9276 42.4518 85.6064 38.6934 85.6064 31.8665V31.799C85.5428 26.344 78.3089 22.1628 64.1047 19.3703L64.0741 19.3644L59.6322 18.5838C57.6232 18.2679 55.5378 17.9871 53.4154 17.7461C52.9932 17.6981 52.5678 17.6516 52.1391 17.6066C49.2919 17.308 46.3017 17.073 43.2317 16.9054C43.8837 16.0603 44.5883 15.2573 45.3418 14.5012C48.9203 10.918 53.5087 8.51441 58.4918 7.61258C63.4749 6.71076 68.6147 7.35378 73.222 9.45551C77.8294 11.5572 81.6842 15.0171 84.2697 19.3714C86.8552 23.7257 88.0477 28.7663 87.6876 33.8176C87.3275 38.8689 85.4318 43.6893 82.2548 47.6328C79.0776 51.5765 74.771 54.4543 69.9121 55.8809C65.0532 57.308 59.8742 57.2153 55.0694 55.6158C50.2646 54.0158 46.0637 50.9857 43.0297 46.9311C46.1785 46.7557 49.249 46.5078 52.1751 46.192C52.6022 46.1457 53.0276 46.0982 53.4514 46.0496C55.5703 45.8032 57.6562 45.5193 59.6603 45.1981L64.1337 44.4032Z" fill="url(#paint6_linear_606_1954)"/>
<path d="M94.999 32.0236C94.9799 24.9327 92.6141 18.0475 88.2708 12.4424C83.9275 6.8372 77.851 2.82739 70.9894 1.03855C64.1278 -0.750281 56.867 -0.217525 50.3399 2.55371C43.813 5.32493 38.3866 10.1788 34.9081 16.3578C36.245 16.4235 37.5671 16.4965 38.8735 16.5766C41.2886 12.8393 44.5384 9.71392 48.3673 7.44652C52.7087 4.88408 57.6505 3.51528 62.6917 3.47895C67.7327 3.44263 72.6938 4.74007 77.0717 7.2397C81.4496 9.7393 85.0886 13.3522 87.6197 17.7119C90.1508 22.0717 91.484 27.0233 91.484 32.0645C91.484 37.1058 90.1508 42.0574 87.6197 46.4171C85.0886 50.7766 81.4496 54.3897 77.0717 56.8895C72.6938 59.3889 67.7327 60.6863 62.6917 60.6499C57.6505 60.6139 52.7087 59.245 48.3673 56.6825C44.4379 54.3557 41.12 51.126 38.6877 47.2607C37.3878 47.3409 36.075 47.4149 34.749 47.4829C38.1752 53.7367 43.5864 58.6719 50.1283 61.5093C56.6705 64.3467 63.9712 64.9252 70.8784 63.1527C77.7856 61.3807 83.906 57.3586 88.2738 51.7218C92.6417 46.0853 95.0082 39.1546 95 32.0236H94.999Z" fill="url(#paint7_linear_606_1954)"/>
<path d="M119.67 30.86L130.555 45H126.67L117.64 33.1H117.465L113.58 37.125V45H110.395V20.57H113.58V33.065H113.685L125.48 20.57H129.645L119.67 30.86ZM148.892 36.075V37.195H135.382C135.569 38.8283 136.176 40.1 137.202 41.01C138.229 41.92 139.781 42.375 141.857 42.375C143.957 42.375 145.894 41.7917 147.667 40.625H147.842V43.705C145.882 44.8017 143.572 45.35 140.912 45.35C138.276 45.35 136.152 44.545 134.542 42.935C132.956 41.3017 132.162 39.1083 132.162 36.355C132.162 33.5783 132.874 31.2917 134.297 29.495C135.721 27.6983 137.797 26.8 140.527 26.8C143.257 26.8 145.334 27.6983 146.757 29.495C148.181 31.2917 148.892 33.485 148.892 36.075ZM135.382 34.605H145.707C145.614 32.925 145.042 31.6533 143.992 30.79C142.966 29.9267 141.811 29.495 140.527 29.495C139.244 29.495 138.089 29.9267 137.062 30.79C136.036 31.6533 135.476 32.925 135.382 34.605ZM153.488 28.13C155.518 27.2433 157.688 26.8 159.998 26.8C162.332 26.8 164.117 27.4767 165.353 28.83C166.59 30.1833 167.208 31.805 167.208 33.695V45H164.408L164.023 42.76H163.918C162.238 44.4867 160.08 45.35 157.443 45.35C155.857 45.35 154.503 44.8717 153.383 43.915C152.287 42.9583 151.738 41.6517 151.738 39.995C151.738 38.3383 152.415 36.9967 153.768 35.97C155.145 34.9433 157.152 34.43 159.788 34.43H164.023V34.15C164.023 32.61 163.638 31.5017 162.868 30.825C162.122 30.1483 160.815 29.81 158.948 29.81C157.082 29.81 155.332 30.2067 153.698 31H153.488V28.13ZM164.023 39.925V36.985H160.208C156.685 36.985 154.923 37.9183 154.923 39.785C154.923 41.6283 156.16 42.55 158.633 42.55C159.66 42.55 160.652 42.305 161.608 41.815C162.565 41.3017 163.37 40.6717 164.023 39.925ZM185.502 27.15V30.125L175.387 41.92V42.025H185.502V45H171.432V42.06L181.687 30.265V30.125H171.747V27.15H185.502ZM188.968 36.075C188.968 33.2983 189.785 31.0583 191.418 29.355C193.051 27.6517 195.21 26.8 197.893 26.8C200.6 26.8 202.77 27.6517 204.403 29.355C206.06 31.0583 206.888 33.2983 206.888 36.075C206.888 38.8517 206.06 41.0917 204.403 42.795C202.77 44.4983 200.6 45.35 197.893 45.35C195.21 45.35 193.051 44.4983 191.418 42.795C189.785 41.0917 188.968 38.8517 188.968 36.075ZM193.868 40.87C195.035 41.92 196.388 42.445 197.928 42.445C199.468 42.445 200.81 41.92 201.953 40.87C203.12 39.7967 203.703 38.1983 203.703 36.075C203.703 33.9283 203.12 32.33 201.953 31.28C200.81 30.23 199.468 29.705 197.928 29.705C196.388 29.705 195.035 30.23 193.868 31.28C192.725 32.33 192.153 33.9283 192.153 36.075C192.153 38.1983 192.725 39.7967 193.868 40.87ZM230.107 20.57H233.292V45H229.372L215.232 24.875H215.162V45H211.977V20.57H215.897L230.002 40.66H230.107V20.57ZM238.631 45V30.7812H242.371C243.901 30.7812 245.057 31.0938 245.838 31.7188C246.626 32.3372 247.02 33.2389 247.02 34.4238C247.02 35.2832 246.801 35.9961 246.365 36.5625C245.929 37.1289 245.314 37.4902 244.52 37.6465C245.418 37.7637 246.167 38.1543 246.766 38.8184C247.365 39.4759 247.664 40.2311 247.664 41.084C247.664 42.2949 247.27 43.252 246.482 43.9551C245.701 44.6517 244.611 45 243.211 45H238.631ZM239.158 37.9785V44.4727H243.27C244.474 44.4727 245.418 44.1764 246.102 43.584C246.792 42.985 247.137 42.1582 247.137 41.1035C247.137 40.2051 246.805 39.4661 246.141 38.8867C245.477 38.3008 244.588 37.998 243.475 37.9785H239.158ZM239.158 37.4512H242.566C243.862 37.4512 244.839 37.2038 245.496 36.709C246.154 36.2077 246.482 35.4329 246.482 34.3848C246.482 32.3665 245.151 31.3411 242.488 31.3086H239.158V37.4512ZM260.77 38.9551C260.77 40.1855 260.548 41.276 260.105 42.2266C259.669 43.1706 259.044 43.903 258.23 44.4238C257.417 44.9382 256.479 45.1953 255.418 45.1953C253.816 45.1953 252.521 44.6257 251.531 43.4863C250.542 42.347 250.047 40.8105 250.047 38.877V36.8262C250.047 35.6022 250.265 34.515 250.701 33.5645C251.144 32.6139 251.772 31.8815 252.586 31.3672C253.406 30.8464 254.344 30.5859 255.398 30.5859C256.46 30.5859 257.397 30.8464 258.211 31.3672C259.031 31.8815 259.663 32.6172 260.105 33.5742C260.548 34.5247 260.77 35.6087 260.77 36.8262V38.9551ZM260.242 36.8066C260.242 35.0879 259.806 33.7109 258.934 32.6758C258.061 31.6341 256.883 31.1133 255.398 31.1133C253.934 31.1133 252.765 31.6309 251.893 32.666C251.02 33.6947 250.584 35.0977 250.584 36.875V38.9551C250.584 40.0879 250.779 41.0905 251.17 41.9629C251.567 42.8288 252.13 43.4961 252.859 43.9648C253.589 44.4336 254.441 44.668 255.418 44.668C256.902 44.668 258.077 44.1504 258.943 43.1152C259.809 42.0801 260.242 40.6673 260.242 38.877V36.8066ZM274.09 38.9551C274.09 40.1855 273.868 41.276 273.426 42.2266C272.99 43.1706 272.365 43.903 271.551 44.4238C270.737 44.9382 269.799 45.1953 268.738 45.1953C267.137 45.1953 265.841 44.6257 264.852 43.4863C263.862 42.347 263.367 40.8105 263.367 38.877V36.8262C263.367 35.6022 263.585 34.515 264.021 33.5645C264.464 32.6139 265.092 31.8815 265.906 31.3672C266.727 30.8464 267.664 30.5859 268.719 30.5859C269.78 30.5859 270.717 30.8464 271.531 31.3672C272.352 31.8815 272.983 32.6172 273.426 33.5742C273.868 34.5247 274.09 35.6087 274.09 36.8262V38.9551ZM273.562 36.8066C273.562 35.0879 273.126 33.7109 272.254 32.6758C271.382 31.6341 270.203 31.1133 268.719 31.1133C267.254 31.1133 266.085 31.6309 265.213 32.666C264.34 33.6947 263.904 35.0977 263.904 36.875V38.9551C263.904 40.0879 264.1 41.0905 264.49 41.9629C264.887 42.8288 265.451 43.4961 266.18 43.9648C266.909 44.4336 267.762 44.668 268.738 44.668C270.223 44.668 271.398 44.1504 272.264 43.1152C273.13 42.0801 273.562 40.6673 273.562 38.877V36.8066ZM280.145 37.5195L277.869 39.6191V45H277.342V30.7812H277.869V39.0039L280.213 36.709L286.111 30.7812H286.873L280.535 37.1582L287.361 45H286.678L280.145 37.5195ZM298.553 41.5918C298.553 40.9863 298.41 40.4753 298.123 40.0586C297.843 39.6354 297.397 39.2643 296.785 38.9453C296.18 38.6198 295.262 38.2878 294.031 37.9492C292.801 37.6107 291.876 37.2689 291.258 36.9238C290.646 36.5788 290.197 36.1784 289.91 35.7227C289.624 35.2669 289.48 34.7135 289.48 34.0625C289.48 33.0273 289.917 32.1908 290.789 31.5527C291.661 30.9082 292.798 30.5859 294.197 30.5859C295.109 30.5859 295.926 30.765 296.648 31.123C297.378 31.4746 297.941 31.9727 298.338 32.6172C298.735 33.2552 298.934 33.9779 298.934 34.7852H298.406C298.406 33.724 298.016 32.8483 297.234 32.1582C296.453 31.4616 295.441 31.1133 294.197 31.1133C292.947 31.1133 291.935 31.3932 291.16 31.9531C290.392 32.5065 290.008 33.2031 290.008 34.043C290.008 34.8958 290.343 35.5827 291.014 36.1035C291.684 36.6243 292.791 37.0866 294.334 37.4902C295.877 37.8874 297.007 38.3496 297.723 38.877C298.634 39.5475 299.09 40.446 299.09 41.5723C299.09 42.2884 298.888 42.9232 298.484 43.4766C298.081 44.0234 297.508 44.4466 296.766 44.7461C296.023 45.0456 295.19 45.1953 294.266 45.1953C293.237 45.1953 292.312 45.026 291.492 44.6875C290.672 44.3424 290.053 43.8542 289.637 43.2227C289.227 42.5911 289.021 41.8457 289.021 40.9863H289.549C289.549 42.1517 289.985 43.0566 290.857 43.7012C291.73 44.3457 292.866 44.668 294.266 44.668C295.509 44.668 296.535 44.3848 297.342 43.8184C298.149 43.2454 298.553 42.5033 298.553 41.5918Z" fill="white"/>
<defs>
<linearGradient id="paint0_linear_606_1954" x1="1.45905" y1="31.8976" x2="64.5444" y2="31.8976" gradientUnits="userSpaceOnUse">
<stop stop-color="#1153FC"/>
<stop offset="1" stop-color="#5581F1"/>
</linearGradient>
<linearGradient id="paint1_linear_606_1954" x1="1.44767" y1="32.134" x2="64.5361" y2="32.134" gradientUnits="userSpaceOnUse">
<stop stop-color="#1153FC"/>
<stop offset="1" stop-color="#5581F1"/>
</linearGradient>
<linearGradient id="paint2_linear_606_1954" x1="1.43508" y1="32.1343" x2="64.5193" y2="32.1343" gradientUnits="userSpaceOnUse">
<stop stop-color="#1153FC"/>
<stop offset="1" stop-color="#5581F1"/>
</linearGradient>
<linearGradient id="paint3_linear_606_1954" x1="1.45263" y1="31.926" x2="64.5414" y2="31.926" gradientUnits="userSpaceOnUse">
<stop stop-color="#1153FC"/>
<stop offset="1" stop-color="#5581F1"/>
</linearGradient>
<linearGradient id="paint4_linear_606_1954" x1="1.45209" y1="31.9386" x2="64.5384" y2="31.9386" gradientUnits="userSpaceOnUse">
<stop stop-color="#1153FC"/>
<stop offset="1" stop-color="#5581F1"/>
</linearGradient>
<linearGradient id="paint5_linear_606_1954" x1="1.45007" y1="31.9566" x2="64.5388" y2="31.9566" gradientUnits="userSpaceOnUse">
<stop stop-color="#1153FC"/>
<stop offset="1" stop-color="#5581F1"/>
</linearGradient>
<linearGradient id="paint6_linear_606_1954" x1="1.4839" y1="32.0514" x2="64.5404" y2="32.0514" gradientUnits="userSpaceOnUse">
<stop stop-color="#1153FC"/>
<stop offset="1" stop-color="#5581F1"/>
</linearGradient>
<linearGradient id="paint7_linear_606_1954" x1="1.43004" y1="32.08" x2="64.513" y2="32.08" gradientUnits="userSpaceOnUse">
<stop stop-color="#1153FC"/>
<stop offset="1" stop-color="#5581F1"/>
</linearGradient>
</defs>
</svg>
