<svg width="40" height="40" viewBox="0 0 40 40" fill="none" xmlns="http://www.w3.org/2000/svg">
<path d="M5 13.3333V31.6666C5 35.3349 7.99 36.6666 10 36.6666H35V33.3333H10.02C9.25 33.3133 8.33333 33.0099 8.33333 31.6666C8.33333 30.3233 9.25 30.0199 10.02 29.9999H35V6.66659C35 4.82825 33.505 3.33325 31.6667 3.33325H10C7.99 3.33325 5 4.66492 5 8.33325V13.3333ZM10 6.66659H31.6667V26.6666H8.33333V8.33325C8.33333 6.98992 9.25 6.68659 10 6.66659Z" fill="#E7E2E2" fill-opacity="0.81"/>
<path d="M19.9951 23.3333L25.5784 17.8516C25.9226 17.5205 26.1965 17.1234 26.3836 16.6839C26.5707 16.2444 26.6671 15.7717 26.6671 15.2941C26.6671 14.8165 26.5707 14.3438 26.3836 13.9043C26.1965 13.4649 25.9226 13.0677 25.5784 12.7366C24.8844 12.0516 23.9485 11.6675 22.9734 11.6675C21.9983 11.6675 21.0624 12.0516 20.3684 12.7366L19.9951 13.0999L19.6217 12.7349C18.928 12.05 17.9924 11.666 17.0176 11.666C16.0427 11.666 15.1071 12.05 14.4134 12.7349C14.0691 13.066 13.7953 13.4632 13.6082 13.9026C13.4211 14.3421 13.3247 14.8148 13.3247 15.2924C13.3247 15.7701 13.4211 16.2428 13.6082 16.6822C13.7953 17.1217 14.0691 17.5189 14.4134 17.8499L19.9951 23.3333Z" fill="#E7E2E2" fill-opacity="0.81"/>
</svg>
